/* XPM */
static char *_adc110d72be46949eabec11796184ea[] = {
/* columns rows colors chars-per-pixel */
"64 64 5 1 ",
"  c gray13",
". c #EE4035",
"X c #F37736",
"o c #9C27B0",
"O c gray62",
/* pixels */
"oooooooooooooooooooooooooooooooooooooooooooooooooooooooooooooooo",
"oooooooooooooooooooooooooooooooooooooooooooooooooooooooooooooooo",
"oooooooooooooooooooooooooooooooooooooooooooooooooooooooooooooooo",
"oooooooooooooooooooooooooooooooooooooooooooooooooooooooooooooooo",
"oooooooooooooooooooooooooooooooooooooooooooooooooooooooooooooooo",
"oooooooooooooooooooooooooooooooooooooooooooooooooooooooooooooooo",
"oooooooooooooooooooooooooooooooooooooooooooooooooooooooooooooooo",
"oooooooooooooooooooooooooooooooooooooooooooooooooooooooooooooooo",
"oooooooooooooooooooooooooooooooooooooooooooooooooooooooooooooooo",
"oooooooooooooooooooooooooooooooooooooooooooooooooooooooooooooooo",
"oooooooooooooooooooooooooooooooooooooooooooooooooooooooooooooooo",
"oooooooooooooooooooooooooooooooooooooooooooooooooooooooooooooooo",
"oooooooooooooooooooooooooooooooooooooooooooooooooooooooooooooooo",
"ooooooooooooooooooooooooooO     O            ooooooooooooooooooo",
"oooooooooooooooooooooooooO      O      O     ooooooooooooooooooo",
"ooooooooooooooooooooooooO       O     oO     ooooooooooooooooooo",
"oooooooooooooooooooooooO       oO   oooO     ooooooooooooooooooo",
"ooooooooooooooooooooooO       ooO  ooooO     ooooooooooooooooooo",
"oooooooooooooooooooooO       oooO oooooO     ooooooooooooooooooo",
"ooooooooooooooooooooO       ooooO oooooO     ooooooooooooooooooo",
"oooooooooooooooooooO       ooooooooooooO     ooooooooooooooooooo",
"ooooooooooooooooooO       oooooooooooooO     ooooooooooooooooooo",
"oooooooooooooooooO       oooooooooooooO      ooooooooooooooooooo",
"ooooooooooooooooO       oooooooooooooO      oooooooooooooooooooo",
"oooooooooooooooO       oooooooooooooO      ooooooooooooooooooooo",
"ooooooooooooooO       oooooooooooooO      oooooooooooooooooooooo",
"oooooooooooooO       oooooooooooooO      ooooooooooooooooooooooo",
"ooooooooooooO       ooooooooooooOO      oooooooooooooooooooooooo",
"oooooooooooO                   O       ooooooooooooooooooooooooo",
"ooooooooooO                    O      oooooO ooooooooooooooooooo",
"oooooooooO                     O      oooooO ooooooooooooooooooo",
"ooooooooO                      O      ooooO  ooooooooooooooooooo",
"oooooooooooooooooooooooooO     O      oooO   ooooooooooooooooooo",
"oooooooooooooooooooooooooO     O      oooO   ooooooooooooooooooo",
"oooooooooooooooooooooooooO     O      ooO    ooooooooooooooooooo",
"oooooooooooooooooooooooooO     O      oO     ooooooooooooooooooo",
"oooooooooooooooooooooooooO     O      O      ooooooooooooooooooo",
"oooooooooooooooooooooooooO     O             ooooooooooooooooooo",
"oooooooooooooooooooooooooO     ooooooooooooooooooooooooooooooooo",
"oooooooooooooooooooooooooO     .XXXo.X.Xoo.X.XXXoXXo.Xo.Xooooooo",
"oooooooooooooooooooooooooO     .Xooooo.Xoooo.Xoo.X.X.XX.Xooooooo",
"oooooooooooooooooooooooooO     o.XXo.X.Xoo.X.Xoo.X.X.X.XXooooooo",
"oooooooooooooooooooooooooO     oo.Xo.X.Xoo.X.Xoo.X.X.Xo.Xooooooo",
"ooooooooooooooooooooooooooooooo.XXXo.X.XXX.X.XXXoXXo.Xo.Xooooooo",
"oooooooooooooooooooooooooooooooooooooooooooooooooooooooooooooooo",
"ooooooooooooooooooooooooooooo.X.Xo.XXo.Xoo.Xoo.XXX.X.Xoooooooooo",
"ooooooooooooooooooooooooooooo.X.X.Xo.X.Xoo.Xoo.Xoo.X.Xoooooooooo",
"ooooooooooooooooooooooooooooo.X.X.XXXX.Xoo.Xoo.XXX.XXXoooooooooo",
"ooooooooooooooooooooooooooooo.X.X.Xo.X.Xoo.Xoo.Xooo.Xooooooooooo",
"oooooooooooooooooooooooooooooo.Xo.Xo.X.XXX.XXX.XXXo.Xooooooooooo",
"oooooooooooooooooooooooooooooooooooooooooooooooooooooooooooooooo",
"oooooooooooooooooooooooooooooooooooooooooooooooooooooooooooooooo",
"oooooooooooooooooooooooooooooooooooooooooooooooooooooooooooooooo",
"oooooooooooooooooooooooooooooooooooooooooooooooooooooooooooooooo",
"oooooooooooooooooooooooooooooooooooooooooooooooooooooooooooooooo",
"oooooooooooooooooooooooooooooooooooooooooooooooooooooooooooooooo",
"oooooooooooooooooooooooooooooooooooooooooooooooooooooooooooooooo",
"oooooooooooooooooooooooooooooooooooooooooooooooooooooooooooooooo",
"oooooooooooooooooooooooooooooooooooooooooooooooooooooooooooooooo",
"oooooooooooooooooooooooooooooooooooooooooooooooooooooooooooooooo",
"oooooooooooooooooooooooooooooooooooooooooooooooooooooooooooooooo",
"oooooooooooooooooooooooooooooooooooooooooooooooooooooooooooooooo",
"oooooooooooooooooooooooooooooooooooooooooooooooooooooooooooooooo",
"oooooooooooooooooooooooooooooooooooooooooooooooooooooooooooooooo"
};
