/* XPM */
static char *_779a19c150f4a41db6b40df7de2528c[] = {
/* columns rows colors chars-per-pixel */
"64 64 5 1 ",
"  c black",
". c #3D5AFE",
"X c #9C27B0",
"o c #2196F3",
"O c #42A5F5",
/* pixels */
"XXXXXXXXXXXXXXXXXXXXXXXXXXXXXXXXXXXXXXXXXXXXXXXXXXXXXXXXXXXXXXXX",
"XXXXXXXXXXXXXXXXXXXXXXXXXXXXXXXXXXXXXXXXXXXXXXXXXXXXXXXXXXXXXXXX",
"XXXXXXXXXXXXXXXXXXXXXXXXXXXXXXXXXXXXXXXXXXXXXXXXXXXXXXXXXXXXXXXX",
"XXXXXXXXXXXXXXXXXXXXXXXXXXXXXXXXXXXXXXXXXXXXXXXXXXXXXXXXXXXXXXXX",
"XXXXXXXXXXXXXXXXXXXXXXXXXXXXXXXXXXXXXXXXXXXXXXXXXXXXXXXXXXXXXXXX",
"XXXXXXXXXXXXXXXXXXXXXXXXXXXXXXXXXXXXXXXXXXXXXXXXXXXXXXXXXXXXXXXX",
"XXXXXXXXXXXXXXXXXXXXXXXXXXXXXXXXXXXXXXXXXXXXXXXXXXXXXXXXXXXXXXXX",
"XXXXXXXXXXXXXXXXXXXXXXXXXXXXXXXXXXXXXXXXXXXXXXXXXXXXXXXXXXXXXXXX",
"XXXXXXXXXXXXXXXXXXXXXXXXXXXXXXXXXXXXXXXXXXXXXXXXXXXXXXXXXXXXXXXX",
"XXXXXXXXXXXXXXXXXXXXXXXXXXXXXXXXXXXXXXXXXXXXXXXXXXXXXXXXXXXXXXXX",
"XXXXXXXXXXXXXXXXXXXXXXXXXXXXXXXXXXXXXXXXXXXXXXXXXXXXXXXXXXXXXXXX",
"XXXXXXXXXXXXXXXXXXXXXXXXXXXXXXXXXXXXXXXXXXXXXXXXXXXXXXXXXXXXXXXX",
"XXXXXXXXXXXXXXXXXXXXXXXXXXXXXXXXXXXXXXXXXXXXXXXXXXXXXXXXXXXXXXXX",
"XXXXXXXXXXXXXXXXXXXXXXXXXXXXXXXXXXXXXXXXXXXXXXXXXXXXXXXXXXXXXXXX",
"XXXXXXXXXXXXXXXXXXXXXXXXXXXXXXXXXXXXXXXXXXXXXXXXXXXXXXXXXXXXXXXX",
"XXXXXXXXXXXXXXXXXXXXXXXXXXXXXXXXXXXXXXXXXXXXXXXXXXXXXXXXXXXXXXXX",
"XXXXXXXXXXXXXXXXXXXXXXXXXXXXXXXXXXXXXXXXXXXXXXXXXXXXXXXXXXXXXXXX",
"XXXXXXXXXXXXXXXXXXXXXXXXXXXXXXXXXXXXXXXXXXXXXXXXXXXXXXXXXXXXXXXX",
"XXXXXXXXXXXXXXXXXXXXXXXXXXXXXXXXXXXXXXXXXXXXXXXXXXXXXXXXXXXXXXXX",
"XXXXXXXXXXXXXXXXXXXXXXXXXXXXXXXXXXXXXXXXXXXXXXXXXXXXXXXXXXXXXXXX",
"XXXXXXXXXXXXXXXX                                XXXXXXXXXXXXXXXX",
"XXXXXXXXXXXXXXXX oooooooooooooooooooooooooooooo XXXXXXXXXXXXXXXX",
"XXXXXXXXXXXXXXXX .....oooooo................... XXXXXXXXXXXXXXXX",
"XXXXXXXXXXXXXXXX .....oOooOo................... XXXXXXXXXXXXXXXX",
"XXXXXXXXXXXXXXXX oOo..OoOOoO.oo.........o.o.ooo XXXXXXXXXXXXXXXX",
"XXXXXXXXXXXXXXXX OoO..oOooOo.oO........o.o.o.Oo XXXXXXXXXXXXXXXX",
"XXXXXXXXXXXXXXXX ooo..ooOOoo.oo.........o.o.ooo XXXXXXXXXXXXXXXX",
"XXXXXXXXXXXXXXXX OoO..oOooOo.oO........o.o.o.Oo XXXXXXXXXXXXXXXX",
"XXXXXXXXXXXXXXXX oOo..OoOOoO.oo.........o.o.ooo XXXXXXXXXXXXXXXX",
"XXXXXXXXXXXXXXXX OoO..oOooOo.oO........o.o.o.Oo XXXXXXXXXXXXXXXX",
"XXXXXXXXXXXXXXXX ooo..ooOOoo.oo.........o.o.ooo XXXXXXXXXXXXXXXX",
"XXXXXXXXXXXXXXXX OoO..oOooOo.oO........o.o.o.Oo XXXXXXXXXXXXXXXX",
"XXXXXXXXXXXXXXXX oOo..OoOOoO.oo.........o.o.ooo XXXXXXXXXXXXXXXX",
"XXXXXXXXXXXXXXXX OoO..oOooOo.oO........o.o.o.Oo XXXXXXXXXXXXXXXX",
"XXXXXXXXXXXXXXXX                                XXXXXXXXXXXXXXXX",
"XXXXXXXXXXXXXXXXXX                            XXXXXXXXXXXXXXXXXX",
"XXXXXXXXXXXXXXXXXX ooo..ooooo.oo......o.o.ooo XXXXXXXXXXXXXXXXXX",
"XXXXXXXXXXXXXXXXXX OoO..oOoOo.oO.......o.o.Oo XXXXXXXXXXXXXXXXXX",
"XXXXXXXXXXXXXXXXXX ooo..ooOoo.oo......o.o.ooo XXXXXXXXXXXXXXXXXX",
"XXXXXXXXXXXXXXXXXX OoO..oOoOo.oO.......o.o.Oo XXXXXXXXXXXXXXXXXX",
"XXXXXXXXXXXXXXXXXX ooo..ooooo.oo......o.o.ooo XXXXXXXXXXXXXXXXXX",
"XXXXXXXXXXXXXXXXXX OoO..oOoOo.oO.......o.o.Oo XXXXXXXXXXXXXXXXXX",
"XXXXXXXXXXXXXXXXXX ooo..ooOoo.oo......o.o.ooo XXXXXXXXXXXXXXXXXX",
"XXXXXXXXXXXXXXXXXX OoO..oOoOo.oO.......o.o.Oo XXXXXXXXXXXXXXXXXX",
"XXXXXXXXXXXXXXXXXX ooo..ooooo.oo......o.o.ooo XXXXXXXXXXXXXXXXXX",
"XXXXXXXXXXXXXXXXXX OoO..oOoOo.oO.......o.o.Oo XXXXXXXXXXXXXXXXXX",
"XXXXXXXXXXXXXXXXXX ooo..ooOoo.oo......o.o.ooo XXXXXXXXXXXXXXXXXX",
"XXXXXXXXXXXXXXXXXX OoO..oOoOo.oO.......o.o.Oo XXXXXXXXXXXXXXXXXX",
"XXXXXXXXXXXXXXXXXX ooo..ooooo.oo......o.o.ooo XXXXXXXXXXXXXXXXXX",
"XXXXXXXXXXXXXXXXXX OoO..oOoOo.oO.......o.o.Oo XXXXXXXXXXXXXXXXXX",
"XXXXXXXXXXXXXXXXXX ooo..ooOoo.oo......o.o.ooo XXXXXXXXXXXXXXXXXX",
"XXXXXXXXXXXXXXXXXX OoO..oOoOo.oO.......o.o.Oo XXXXXXXXXXXXXXXXXX",
"XXXXXXXXXXXXXXXXXX ooo..ooooo.oo......o.o.ooo XXXXXXXXXXXXXXXXXX",
"XXXXXXXXXXXXXXXXXX OoO..oOoOo.oO.......o.o.Oo XXXXXXXXXXXXXXXXXX",
"XXXXXXXXXXXXXXXXXX ooo..ooOoo.oo......o.o.ooo XXXXXXXXXXXXXXXXXX",
"XXXXXXXXXXXXXXXXXX OoO..oOoOo.oO.......o.o.Oo XXXXXXXXXXXXXXXXXX",
"XXXXXXXXXXXXXXXXXX ooo..ooooo.oo......o.o.ooo XXXXXXXXXXXXXXXXXX",
"XXXXXXXXXXXXXXXXXX OoO..oOoOo.oO.......o.o.Oo XXXXXXXXXXXXXXXXXX",
"XXXXXXXXXXXXXXXXXX ooo..ooOoo.oo......o.o.ooo XXXXXXXXXXXXXXXXXX",
"XXXXXXXXXXXXXXXXXX OoO..oOoOo.oO.......o.o.Oo XXXXXXXXXXXXXXXXXX",
"XXXXXXXXXXXXXXXXXX ooo..ooooo.oo......o.o.ooo XXXXXXXXXXXXXXXXXX",
"XXXXXXXXXXXXXXXXXX OoO..oOoOo.oO.......o.o.Oo XXXXXXXXXXXXXXXXXX",
"XXXXXXXXXXXXXXXXXX ooo..ooOoo.oo......o.o.ooo XXXXXXXXXXXXXXXXXX",
"XXXXXXXXXXXXXXXXXX OoO..oOoOo.oO.......o.o.Oo XXXXXXXXXXXXXXXXXX"
};
