/* XPM */
static char *companion_cube[] = {
/* columns rows colors chars-per-pixel */
"64 64 8 1 ",
"  c black",
". c gray46",
"X c #607D8B",
"o c #F06292",
"O c gray62",
"+ c #EF9A9A",
"@ c #C0C0C0",
"# c gray88",
/* pixels */
"OOO..................OO..................OO..................OOO",
"OO...................OO..................OO...................OO",
"O..#################.OO.################.OO.#################..O",
"..##################.XX.################.XX.##################..",
"..##################.XX.################.XX.##################..",
"..##################.XX.################.XX.##################..",
"..##################.XX.####........####.XX.##################..",
"..##################.XX.##..XXooooXX..##.XX.##################..",
"..##################.XXX..XXXXooooXXXX..XXX.##################..",
"..##################.XXXXXXXXXooooXXXXXXXXX.##################..",
"..################..XXXXXXXXXXooooXXXXXXXXXX..################..",
"..##############..XXXXXXXXXXXXooooXXXXXXXXXXXX..##############..",
"..#############.XXXXXXXXXXXXXXooooXXXXXXXXXXXXXX.#############..",
"..###########..XXXXXXXXXXXXXXXooooXXXXXXXXXXXXXXX..###########..",
"..##########.XXXXXXXXXXXXXXXXXooooXXXXXXXXXXXXXXXXX.##########..",
"..##########.XXXXXXXXXXXXXXXXXooooXXXXXXXXXXXXXXXXX.##########..",
"..#########.XXXXXXXXXXXXXXXXX      XXXXXXXXXXXXXXXXX.#########..",
"..#########.XXXXXXXXXXXXXX   @@@@@@   XXXXXXXXXXXXXX.#########..",
"..########.XXXXXXXXXXXXXX @@@@@@@@@@@@ XXXXXXXXXXXXXX.########..",
"..########.XXXXXXXXXXXX  @@@@@@@@@@@@@@  XXXXXXXXXXXX.########..",
"..........XXXXXXXXXXXX @@@@@@@@@@@@@@@@@@ XXXXXXXXXXXX..........",
"OOOXXXXXXXXXXXXXXXXXX @@@@@@@@@@@@@@@@@@@@ XXXXXXXXXXXXXXXXXXOOO",
"OOOXXXXXXXXXXXXXXXXX @@@@@@@@@@@@@@@@@@@@@@ XXXXXXXXXXXXXXXXXOOO",
"........XXXXXXXXXXXX @@@@@@@@@@@@@@@@@@@@@@ XXXXXXXXXXXX........",
"..#####.XXXXXXXXXXX @@@@@@@@@@@@@@@@@@@@@@@@ XXXXXXXXXXX.#####..",
"..#####.XXXXXXXXXX @@@@@@@@@@@@@@@@@@@@@@@@@@ XXXXXXXXXX.#####..",
"..####.XXXXXXXXXXX @@@@@@@@    @@    @@@@@@@@ XXXXXXXXXXX.####..",
"..####.XXXXXXXXXXX @@@@@@@@    @@    @@@@@@@O XXXXXXXXXXX.####..",
"..####.XXXXXXXXXX @@@@@@@  ++++  ++++  @@@@@OO XXXXXXXXXX.####..",
"..###.XXXXXXXXXXX @@@@@@@  ++++  ++++  @@@@OOO XXXXXXXXXXX.###..",
"..###.ooooooooooo @@@@@@@  ++++++++++  @@@@OOO ooooooooooo.###..",
"..###.ooooooooooo @@@@@@@  ++++++++++  @@@OOOO ooooooooooo.###..",
"..###.ooooooooooo @@@@@@@@@  ++++++  @@@@@OOOO ooooooooooo.###..",
"..###.ooooooooooo @@@@@@@@@  ++++++  @@@@OOOOO ooooooooooo.###..",
"..###.XXXXXXXXXXXX @@@@@@@@@@  ++  @@@@@@OOOO XXXXXXXXXXXX.###..",
"..####.XXXXXXXXXXX @@@@@@@@@@  ++  @@@@@OOOOO XXXXXXXXXXX.####..",
"..####.XXXXXXXXXXX @@@@@@@@@@@@  @@@@@@OOOOOO XXXXXXXXXXX.####..",
"..####.XXXXXXXXXXXX @@@@@@@@@@@  @@@@@@OOOOO XXXXXXXXXXXX.####..",
"..#####.XXXXXXXXXXXX @@@@@@@@@@@@@@@@@OOOOO XXXXXXXXXXXX.#####..",
"..#####.XXXXXXXXXXXX @@@@@@@@@@@@@@@@OOOOOO XXXXXXXXXXXX.#####..",
"........XXXXXXXXXXXXX @@@@@@@@@@@@@OOOOOOO XXXXXXXXXXXXX........",
"OOOXXXXXXXXXXXXXXXXXXX @@@@@@@@@@@OOOOOOO XXXXXXXXXXXXXXXXXXXOOO",
"OOOXXXXXXXXXXXXXXXXXXXX  @@@@@@@OOOOOOO  XXXXXXXXXXXXXXXXXXXXOOO",
"..........XXXXXXXXXXXXXXX @@@@@OOOOOOO XXXXXXXXXXXXXXX..........",
"..########.XXXXXXXXXXXXXXX   OOOOOO   XXXXXXXXXXXXXXX.########..",
"..########.XXXXXXXXXXXXXXXXXX      XXXXXXXXXXXXXXXXXX.########..",
"..#########.XXXXXXXXXXXXXXXXXXooooXXXXXXXXXXXXXXXXXX.#########..",
"..#########.XXXXXXXXXXXXXXXXXXooooXXXXXXXXXXXXXXXXXX.#########..",
"..##########.XXXXXXXXXXXXXXXXXooooXXXXXXXXXXXXXXXXX.##########..",
"..##########.XXXXXXXXXXXXXXXXXooooXXXXXXXXXXXXXXXXX.##########..",
"..###########..XXXXXXXXXXXXXXXooooXXXXXXXXXXXXXXX..###########..",
"..#############.XXXXXXXXXXXXXXooooXXXXXXXXXXXXXX.#############..",
"..##############..XXXXXXXXXXXXooooXXXXXXXXXXXX..##############..",
"..################..XXXXXXXXXXooooXXXXXXXXXX..################..",
"..##################.XXXXXXXXXooooXXXXXXXXX.##################..",
"..##################.XX...XXXXooooXXXX...XX.##################..",
"..##################.XX.##..XXooooXX..##.XX.##################..",
"..##################.XX.####........####.XX.##################..",
"..##################.XX.################.XX.##################..",
"..##################.XX.################.XX.##################..",
"..##################.XX.################.XX.##################..",
"O..#################.OO.################.OO.#################..O",
"OO...................OO..................OO...................OO",
"OOO..................OO..................OO..................OOO"
};
