/* XPM */
static char *_a94cccde9fa4f40babd69522fc7dd52[] = {
/* columns rows colors chars-per-pixel */
"64 64 2 1 ",
"  c #784200",
". c #C26B00",
/* pixels */
" ......  ......  ......  .......  ......  ........  ......  ....",
" ......  ......  ......  .......  ......  ........  ......  ....",
"                                                                ",
"                                                                ",
".  ......  ......  ......  .......  ......  ........  ......  ..",
".  ......  ......  ......  .......  ......  ........  ......  ..",
".  ......  ......  ......  .......  ......  ........  ......  ..",
".  ......  ......  ......  .......  ......  ........  ......  ..",
"                                                                ",
"                                                                ",
"....  ........  ......  ........  ......  ........  ......  ....",
"....  ........  ......  ........  ......  ........  ......  ....",
"....  ........  ......  ........  ......  ........  ......  ....",
"....  ........  ......  ........  ......  ........  ......  ....",
"                                                                ",
"                                                                ",
"..  ........  ......  ........  ......  ........  ......  ......",
"..  ........  ......  ........  ......  ........  ......  ......",
"..  ........  ......  ........  ......  ........  ......  ......",
"..  ........  ......  ........  ......  ........  ......  ......",
"                                                                ",
"                                                                ",
"....  ........  ......  ........  ......  ........  ......  ....",
"....  ........  ......  ........  ......  ........  ......  ....",
"....  ........  ......  ........  ......  ........  ......  ....",
"....  ........  ......  ........  ......  ........  ......  ....",
"                                                                ",
"                                                                ",
"  ........  ......  .......  ......  ........  ......  ........ ",
"  ........  ......  .......  ......  ........  ......  ........ ",
"  ........  ......  .......  ......  ........  ......  ........ ",
"  ........  ......  .......  ......  ........  ......  ........ ",
"                                                                ",
"                                                                ",
"........  ......  .......  ......  ........  ......  ........  .",
"........  ......  .......  ......  ........  ......  ........  .",
"........  ......  .......  ......  ........  ......  ........  .",
"........  ......  .......  ......  ........  ......  ........  .",
"                                                                ",
"                                                                ",
"  ........  ......  .......  ......  ........  ......  ........ ",
"  ........  ......  .......  ......  ........  ......  ........ ",
"  ........  ......  .......  ......  ........  ......  ........ ",
"  ........  ......  .......  ......  ........  ......  ........ ",
"                                                                ",
"                                                                ",
"......  ......  ........  ......  ........  ......  ........  ..",
"......  ......  ........  ......  ........  ......  ........  ..",
"......  ......  ........  ......  ........  ......  ........  ..",
"......  ......  ........  ......  ........  ......  ........  ..",
"                                                                ",
"                                                                ",
"....  ......  ........  ......  ........  ......  ........  ....",
"....  ......  ........  ......  ........  ......  ........  ....",
"....  ......  ........  ......  ........  ......  ........  ....",
"....  ......  ........  ......  ........  ......  ........  ....",
"                                                                ",
"                                                                ",
"......  ......  ........  ......  ........  ......  ........  ..",
"......  ......  ........  ......  ........  ......  ........  ..",
"......  ......  ........  ......  ........  ......  ........  ..",
"......  ......  ........  ......  ........  ......  ........  ..",
"                                                                ",
"                                                                "
};
