/* XPM */
static char *ad4c0ea71370420efc233b471672657d[] = {
/* columns rows colors chars-per-pixel */
"64 64 3 1 ",
"  c gray13",
". c #F58507",
"X c #FEBD25",
/* pixels */
"    ........................................................    ",
"    XXXXXXXXXXXXXXXXXXXXXXXXXXXXXXXXXXXXXXXXXXXXXXXXXXXXXXXX    ",
"    XXXXXXXXXXXXXXXXXXXXXXXXXXXXXXXXXXXXXXXXXXXXXXXXXXXXXXXX    ",
"    XXXXXXXXXXXXXXXXXXXXXXXXXXXXXXXXXXXXXXXXXXXXXXXXXXXXXXXX    ",
".XXXXXXXXXXXXXXXXXXXXXXXXXXXXXXXXXXXXXXXXXXXXXXXXXXXXXXXXXXX    ",
".XXX    XXXXXXXXXXXXXXXXXXXXXXXXXXXXXXXXXXXXXXXXXXXX    XXXX    ",
".XXX    XXXXXXXXXXXXXXXXXXXXXXXXXXXXXXXXXXXXXXXXXXXX    XXXX    ",
".XXX    XXXXXXXXXXXXXXXXXXXXXXXXXXXXXXXXXXXXXXXXXXXX    XXXX    ",
".XXX    XXXXXXXXXXXXXXXXXXXXXXXXXXXXXXXXXXXXXXXXXXXX    XXXX    ",
".XXXXXXXXXXXXXXXXXXXXXXXXXXXXXXXXXXXXXXXXXXXXXXXXXXXXXXXXXXX    ",
".XXXXXXXXXXXXXXXXXX........................... XXXXXXXXXXXXX    ",
".XXXXXXXXXXXXXXXXX............................. XXXXXXXXXXXX    ",
".XXXXXXXXXXXXXXXX............................... XXXXXXXXXXX    ",
".XXXXXXXXXXXXXXX................................  XXXXXXXXXX    ",
".XXXXXXXXXXXXXXX.................................  XXXXXXXXX    ",
".XXXXXXXXXXXXXX..........              ..........  XXXXXXXXX    ",
".XXXXXXXXXXXXXX........                  ........  XXXXXXXXX    ",
".XXXXXXXXXXXXXX........                  ........  XXXXXXXXX    ",
".XXXXXXXXXXXXXX........                  ........  XXXXXXXXX    ",
".XXXXXXXXXXXXXX........    XXXXXXXXXXXXXXX.......  XXXXXXXXX    ",
".XXXXXXXXXXXXXX.......     XXXXXXXXXXXXXXX.......  XXXXXXXXX    ",
".XXXXXXXXXXXXXX.......     XXXXXXXXXXXXXXX.......  XXXXXXXXX    ",
".XXXXXXXXXXXXXX.......     XXXXXXXXXXXXXXX.......  XXXXXXXXX    ",
".XXXXXXXXXXXXXX.......     XXXXXXXXXXXXXX........  XXXXXXXXX    ",
".XXXXXXXXXXXXXX.......     XXXXXXXXXXXXX.........  XXXXXXXXX    ",
".XXXXXXXXXXXXXXX.....     XXXXXXXXXXXXX..........  XXXXXXXXX    ",
".XXXXXXXXXXXXXXXX         XXXXXXXXXXXX..........   XXXXXXXXX    ",
".XXXXXXXXXXXXXXXXX      XXXXXXXXXXXXX..........   XXXXXXXXXX    ",
".XXXXXXXXXXXXXXXXXXXXXXXXXXXXXXXXXXX..........   XXXXXXXXXXX    ",
".XXXXXXXXXXXXXXXXXXXXXXXXXXXXXXXXXX..........   XXXXXXXXXXXX    ",
".XXXXXXXXXXXXXXXXXXXXXXXXXXXXXXXXX..........   XXXXXXXXXXXXX    ",
".XXXXXXXXXXXXXXXXXXXXXXXXXXXXXXXX..........   XXXXXXXXXXXXXX    ",
".XXXXXXXXXXXXXXXXXXXXXXXXXXXXXXX..........   XXXXXXXXXXXXXXX    ",
".XXXXXXXXXXXXXXXXXXXXXXXXXXXXXX..........   XXXXXXXXXXXXXXXX    ",
".XXXXXXXXXXXXXXXXXXXXXXXXXXXXX..........   XXXXXXXXXXXXXXXXX    ",
".XXXXXXXXXXXXXXXXXXXXXXXXXXXX..........   XXXXXXXXXXXXXXXXXX    ",
".XXXXXXXXXXXXXXXXXXXXXXXXXXX..........   XXXXXXXXXXXXXXXXXXX    ",
".XXXXXXXXXXXXXXXXXXXXXXXXXX..........   XXXXXXXXXXXXXXXXXXXX    ",
".XXXXXXXXXXXXXXXXXXXXXXXXXX.........   XXXXXXXXXXXXXXXXXXXXX    ",
".XXXXXXXXXXXXXXXXXXXXXXXXXX........   XXXXXXXXXXXXXXXXXXXXXX    ",
".XXXXXXXXXXXXXXXXXXXXXXXXXX........  XXXXXXXXXXXXXXXXXXXXXXX    ",
".XXXXXXXXXXXXXXXXXXXXXXXXXX........  XXXXXXXXXXXXXXXXXXXXXXX    ",
".XXXXXXXXXXXXXXXXXXXXXXXXXX........  XXXXXXXXXXXXXXXXXXXXXXX    ",
".XXXXXXXXXXXXXXXXXXXXXXXXXX........  XXXXXXXXXXXXXXXXXXXXXXX    ",
".XXXXXXXXXXXXXXXXXXXXXXXXXX........  XXXXXXXXXXXXXXXXXXXXXXX    ",
".XXXXXXXXXXXXXXXXXXXXXXXXXX........  XXXXXXXXXXXXXXXXXXXXXXX    ",
".XXXXXXXXXXXXXXXXXXXXXXXXXXXX        XXXXXXXXXXXXXXXXXXXXXXX    ",
".XXXXXXXXXXXXXXXXXXXXXXXXXXXX        XXXXXXXXXXXXXXXXXXXXXXX    ",
".XXXXXXXXXXXXXXXXXXXXXXXXXXXXXXXXXXXXXXXXXXXXXXXXXXXXXXXXXXX    ",
".XXXXXXXXXXXXXXXXXXXXXXXXXXXXXXXXXXXXXXXXXXXXXXXXXXXXXXXXXXX    ",
".XXXXXXXXXXXXXXXXXXXXXXXXXX........XXXXXXXXXXXXXXXXXXXXXXXXX    ",
".XXXXXXXXXXXXXXXXXXXXXXXXXX........XXXXXXXXXXXXXXXXXXXXXXXXX    ",
".XXXX    XXXXXXXXXXXXXXXXXX........  XXXXXXXXXXXXXXX    XXXX    ",
".XXXX    XXXXXXXXXXXXXXXXXX........  XXXXXXXXXXXXXXX    XXXX    ",
".XXXX    XXXXXXXXXXXXXXXXXX........  XXXXXXXXXXXXXXX    XXXX    ",
".XXXX    XXXXXXXXXXXXXXXXXXXX        XXXXXXXXXXXXXXX    XXXX    ",
".XXXXXXXXXXXXXXXXXXXXXXXXXXXX        XXXXXXXXXXXXXXXXXXXXXXX    ",
".XXXXXXXXXXXXXXXXXXXXXXXXXXXXXXXXXXXXXXXXXXXXXXXXXXXXXXXXXXX    ",
".XXXXXXXXXXXXXXXXXXXXXXXXXXXXXXXXXXXXXXXXXXXXXXXXXXXXXXXXXXX    ",
".XXXXXXXXXXXXXXXXXXXXXXXXXXXXXXXXXXXXXXXXXXXXXXXXXXXXXXXXXXX    ",
"                                                                ",
"                                                                ",
"                                                                ",
"                                                                "
};
