/* XPM */
static char *_dd7415124b14373ea5f60c520a8c0e6[] = {
/* columns rows colors chars-per-pixel */
"64 64 4 1 ",
"  c #455A64",
". c red",
"X c #F70D0D",
"o c gray62",
/* pixels */
" ... oooo XXX XXXXXXXX XXX XXX                   XXX XXX XXXXXXX",
" ... oooo XXX XXXXXXXX XXX XXX XXXXXXXX XXX oooo XXX            ",
" ... oooo XXX XXXXXXXX XXX XXX XXXXXXXX XXX oooo XXX ........ ..",
" ...                   XXX XXX XXXXXXXX XXX oooo XXX ........ ..",
" ... XXXXXXXX XXX oooo XXX              XXX oooo XXX ........ ..",
" ... XXXXXXXX XXX oooo XXX XXXXXXXX XXX XXX                   ..",
" ... XXXXXXXX XXX oooo XXX XXXXXXXX XXX XXX XXXXXXXX ... oooo ..",
"              XXX oooo XXX XXXXXXXX XXX XXX XXXXXXXX ... oooo ..",
" XXXXXXXX ... XXX                   XXX XXX XXXXXXXX ... oooo ..",
" XXXXXXXX ... XXX XXXXXXXX ... oooo XXX              ... oooo ..",
" XXXXXXXX ... XXX XXXXXXXX ... oooo XXX XXXXXXXX XXX ...        ",
"          ... XXX XXXXXXXX ... oooo XXX XXXXXXXX XXX ... .......",
" XXX oooo ...              ... oooo XXX XXXXXXXX XXX ... .......",
" XXX oooo ... XXXXXXXX XXX ...                   XXX ... .......",
" XXX oooo ... XXXXXXXX XXX ... ........ XXX oooo XXX            ",
" XXX oooo ... XXXXXXXX XXX ... ........ XXX oooo XXX ........ ..",
" XXX                   XXX ... ........ XXX oooo XXX ........ ..",
" XXX XXXXXXXX XXX oooo XXX              XXX oooo XXX ........ ..",
" XXX XXXXXXXX XXX oooo XXX ........ XXX XXX                   ..",
" XXX XXXXXXXX XXX oooo XXX ........ XXX XXX XXXXXXXX XXX oooo ..",
"              XXX oooo XXX ........ XXX XXX XXXXXXXX XXX oooo ..",
" ........ XXX XXX                   XXX XXX XXXXXXXX XXX oooo ..",
" ........ XXX XXX XXXXXXXX XXX oooo XXX              XXX oooo ..",
" ........ XXX XXX XXXXXXXX XXX oooo XXX XXXXXXXX XXX XXX        ",
"          XXX XXX XXXXXXXX XXX oooo XXX XXXXXXXX XXX XXX .......",
" XXX oooo XXX              XXX oooo XXX XXXXXXXX XXX XXX .......",
" XXX oooo XXX ........ XXX XXX                   XXX XXX .......",
" XXX oooo XXX ........ XXX XXX XXXXXXXX XXX oooo XXX            ",
" XXX oooo XXX ........ XXX XXX XXXXXXXX XXX oooo XXX XXXXXXXX ..",
" XXX                   XXX XXX XXXXXXXX XXX oooo XXX XXXXXXXX ..",
" XXX XXXXXXXX XXX oooo XXX              XXX oooo XXX XXXXXXXX ..",
" XXX XXXXXXXX XXX oooo XXX XXXXXXXX XXX XXX                   ..",
" XXX XXXXXXXX XXX oooo XXX XXXXXXXX XXX XXX XXXXXXXX ... oooo ..",
"              XXX oooo XXX XXXXXXXX XXX XXX XXXXXXXX ... oooo ..",
" XXXXXXXX XXX XXX                   XXX XXX XXXXXXXX ... oooo ..",
" XXXXXXXX XXX XXX ........ XXX oooo XXX              ... oooo ..",
" XXXXXXXX XXX XXX ........ XXX oooo XXX XXXXXXXX XXX ...        ",
"          XXX XXX ........ XXX oooo XXX XXXXXXXX XXX ... .......",
" XXX oooo XXX              XXX oooo XXX XXXXXXXX XXX ... .......",
" XXX oooo XXX XXXXXXXX ... XXX                   XXX ... .......",
" XXX oooo XXX XXXXXXXX ... XXX XXXXXXXX XXX oooo XXX            ",
" XXX oooo XXX XXXXXXXX ... XXX XXXXXXXX XXX oooo XXX ........ ..",
" XXX                   ... XXX XXXXXXXX XXX oooo XXX ........ ..",
" XXX ........ XXX oooo ...              XXX oooo XXX ........ ..",
" XXX ........ XXX oooo ... ........ XXX XXX                   ..",
" XXX ........ XXX oooo ... ........ XXX XXX XXXXXXXX ... oooo ..",
"              XXX oooo ... ........ XXX XXX XXXXXXXX ... oooo ..",
" XXXXXXXX ... XXX                   XXX XXX XXXXXXXX ... oooo ..",
" XXXXXXXX ... XXX XXXXXXXX ... oooo XXX              ... oooo ..",
" XXXXXXXX ... XXX XXXXXXXX ... oooo XXX XXXXXXXX XXX ...        ",
"          ... XXX XXXXXXXX ... oooo XXX XXXXXXXX XXX ... .......",
" XXX oooo ...              ... oooo XXX XXXXXXXX XXX ... .......",
" XXX oooo ... XXXXXXXX XXX ...                   XXX ... .......",
" XXX oooo ... XXXXXXXX XXX ... ........ ... oooo XXX            ",
" XXX oooo ... XXXXXXXX XXX ... ........ ... oooo XXX ........ ..",
" XXX                   XXX ... ........ ... oooo XXX ........ ..",
" XXX XXXXXXXX ... oooo XXX              ... oooo XXX ........ ..",
" XXX XXXXXXXX ... oooo XXX XXXXXXXX XXX ...                   ..",
" XXX XXXXXXXX ... oooo XXX XXXXXXXX XXX ... ........ ... oooo ..",
"              ... oooo XXX XXXXXXXX XXX ... ........ ... oooo ..",
" XXXXXXXX XXX ...                   XXX ... ........ ... oooo ..",
" XXXXXXXX XXX ... ........ XXX oooo XXX              ... oooo ..",
" XXXXXXXX XXX ... ........ XXX oooo XXX XXXXXXXX XXX ...        ",
"          XXX ... ........ XXX oooo XXX XXXXXXXX XXX ... XXXXXXX"
};
